HIERARCHY
ROOT Hips
{
	OFFSET 0.00000 0.00000 0.00000
	CHANNELS 6 Xposition Yposition Zposition Zrotation Yrotation Xrotation 
	JOINT LHipJoint
	{
		OFFSET 0 0 0
		CHANNELS 3 Zrotation Yrotation Xrotation
		JOINT LeftUpLeg
		{
			OFFSET 1.54859 -1.61379 0.86856
			CHANNELS 3 Zrotation Yrotation Xrotation
			JOINT LeftLeg
			{
				OFFSET 2.25087 -6.18423 0.00000
				CHANNELS 3 Zrotation Yrotation Xrotation
				JOINT LeftFoot
				{
					OFFSET 2.40328 -6.60297 0.00000
					CHANNELS 3 Zrotation Yrotation Xrotation
					JOINT LeftToeBase
					{
						OFFSET 0.17435 -0.47901 2.02453
						CHANNELS 3 Zrotation Yrotation Xrotation
						End Site
						{
							OFFSET 0.00000 -0.00000 1.04844
						}
					}
				}
			}
		}
	}
	JOINT RHipJoint
	{
		OFFSET 0 0 0
		CHANNELS 3 Zrotation Yrotation Xrotation
		JOINT RightUpLeg
		{
			OFFSET -1.54669 -1.61379 0.86856
			CHANNELS 3 Zrotation Yrotation Xrotation
			JOINT RightLeg
			{
				OFFSET -2.28132 -6.26789 0.00000
				CHANNELS 3 Zrotation Yrotation Xrotation
				JOINT RightFoot
				{
					OFFSET -2.51636 -6.91365 0.00000
					CHANNELS 3 Zrotation Yrotation Xrotation
					JOINT RightToeBase
					{
						OFFSET -0.15124 -0.41552 2.21090
						CHANNELS 3 Zrotation Yrotation Xrotation
						End Site
						{
							OFFSET -0.00000 -0.00000 1.13399
						}
					}
				}
			}
		}
	}
	JOINT LowerBack
	{
		OFFSET 0 0 0
		CHANNELS 3 Zrotation Yrotation Xrotation
		JOINT Spine
		{
			OFFSET -0.04287 2.26161 -0.25690
			CHANNELS 3 Zrotation Yrotation Xrotation
			JOINT Spine1
			{
				OFFSET 0.02248 2.28395 -0.10140
				CHANNELS 3 Zrotation Yrotation Xrotation
				JOINT Neck
				{
					OFFSET 0 0 0
					CHANNELS 3 Zrotation Yrotation Xrotation
					JOINT Neck1
					{
						OFFSET -0.11644 1.38496 0.11345
						CHANNELS 3 Zrotation Yrotation Xrotation
						JOINT Head
						{
							OFFSET 0.29383 1.36600 0.06642
							CHANNELS 3 Zrotation Yrotation Xrotation
							End Site
							{
								OFFSET 0.11075 1.41395 -0.00294
							}
						}
					}
				}
				JOINT LeftShoulder
				{
					OFFSET 0 0 0
					CHANNELS 3 Zrotation Yrotation Xrotation
					JOINT LeftArm
					{
						OFFSET 3.51628 0.59542 -0.30346
						CHANNELS 3 Zrotation Yrotation Xrotation
						JOINT LeftForeArm
						{
							OFFSET 4.76405 -0.00000 0.00000
							CHANNELS 3 Zrotation Yrotation Xrotation
							JOINT LeftHand
							{
								OFFSET 3.13759 -0.00000 -0.00000
								CHANNELS 3 Zrotation Yrotation Xrotation
								JOINT LeftFingerBase
								{
									OFFSET 0 0 0
									CHANNELS 3 Zrotation Yrotation Xrotation
									JOINT LeftHandIndex1
									{
										OFFSET 0.73226 -0.00000 -0.00000
										CHANNELS 3 Zrotation Yrotation Xrotation
										End Site
										{
											OFFSET 0.59037 -0.00000 -0.00000
										}
									}
								}
								JOINT LThumb
								{
									OFFSET 0 0 0
									CHANNELS 3 Zrotation Yrotation Xrotation
									End Site
									{
										OFFSET 0.59938 -0.00000 0.59938
									}
								}
							}
						}
					}
				}
				JOINT RightShoulder
				{
					OFFSET 0 0 0
					CHANNELS 3 Zrotation Yrotation Xrotation
					JOINT RightArm
					{
						OFFSET -3.30990 0.84213 -0.36430
						CHANNELS 3 Zrotation Yrotation Xrotation
						JOINT RightForeArm
						{
							OFFSET -5.10161 -0.00000 -0.00000
							CHANNELS 3 Zrotation Yrotation Xrotation
							JOINT RightHand
							{
								OFFSET -3.23267 -0.00000 -0.00000
								CHANNELS 3 Zrotation Yrotation Xrotation
								JOINT RightFingerBase
								{
									OFFSET 0 0 0
									CHANNELS 3 Zrotation Yrotation Xrotation
									JOINT RightHandIndex1
									{
										OFFSET -0.70200 -0.00000 -0.00000
										CHANNELS 3 Zrotation Yrotation Xrotation
										End Site
										{
											OFFSET -0.56597 -0.00000 -0.00000
										}
									}
								}
								JOINT RThumb
								{
									OFFSET 0 0 0
									CHANNELS 3 Zrotation Yrotation Xrotation
									End Site
									{
										OFFSET -0.57461 -0.00000 0.57461
									}
								}
							}
						}
					}
				}
			}
		}
	}
}
MOTION
Frames: 13
Frame Time: .0083333
25.0457 13.2081 1.3175 182.3770 -45.9579 -170.0950 0.0000 0.0000 0.0000 -15.6264 15.4193 -74.6780 20.5629 19.9924 91.6460 1.1642 3.3241 -21.8283 0.0488 -1.4261 -3.9221 0.0000 0.0000 0.0000 -1.8208 -16.2347 -34.1867 -10.0216 -17.4220 59.5605 -2.8383 -3.3698 -33.1673 -8.6423 16.5720 -54.8447 6.2923 1.7640 29.1913 0.7317 1.7260 12.6505 -3.2708 0.2085 -1.5321 -9.2955 8.5842 -12.6320 -1.0490 10.4390 -24.7641 1.1008 5.0375 -6.1174 -0.0000 -0.0000 0.0000 -90.2240 0.5489 27.5261 28.6345 -39.6938 -10.5265 -0.0000 0.0000 -26.6397 13.1593 18.3811 4.2165 -7.1250 0.0000 -0.0000 -14.4650 48.2775 -1.1927 -0.0000 -0.0000 0.0000 86.8830 38.0992 40.4325 -28.1213 39.2276 -10.2003 0.0000 -0.0000 -9.5597 -33.5963 28.4164 -17.5431 7.1250 -0.0000 -0.0000 -1.7482 3.0132 -1.8386
24.8489 13.1268 1.3154 182.6840 -45.8672 -170.2330 0.0000 0.0000 0.0000 -14.4094 15.3745 -75.7700 20.4016 19.9961 91.1743 1.1643 3.2673 -21.7999 0.0190 -0.8895 -2.4449 0.0000 0.0000 0.0000 -2.4002 -16.6380 -33.4432 -9.8738 -17.3383 59.0658 -2.8254 -3.5346 -33.1632 -8.6988 16.6099 -55.0424 6.2491 1.8492 29.3224 0.5326 1.7905 12.7465 -3.4857 0.2403 -1.4689 -8.9995 8.5079 -12.8965 -1.2091 10.3460 -24.3559 1.0243 4.9845 -5.9099 0.0000 -0.0000 0.0000 -88.6702 1.2760 28.4012 29.8593 -40.7725 -11.3176 -0.0000 0.0000 -26.2697 12.7758 18.1704 4.0447 -7.1250 0.0000 -0.0000 -14.7458 48.0166 -1.1203 0.0000 -0.0000 0.0000 87.8219 39.1753 42.1630 -30.9099 41.6606 -12.0099 0.0000 -0.0000 -10.3684 -33.3705 29.1996 -17.8132 7.1250 -0.0000 -0.0000 -1.4579 3.8009 -1.5519
24.6288 13.1041 1.3097 182.9820 -45.7922 -170.4150 0.0000 0.0000 0.0000 -13.3621 15.4591 -76.3300 20.1344 19.9996 90.3931 1.1776 3.1536 -21.8569 0.0016 -0.2609 -0.7169 0.0000 0.0000 0.0000 -2.9091 -17.1812 -32.3783 -9.5952 -17.1759 58.1267 -2.8395 -3.1924 -33.1017 -8.6996 16.6105 -55.0453 6.0289 2.0173 29.3395 0.4311 1.9100 12.8689 -3.5053 0.2906 -1.3345 -9.1694 8.3300 -13.1734 -1.0313 10.2233 -23.8138 1.1280 4.9453 -5.7043 0.0000 -0.0000 0.0000 -87.2178 2.2001 29.4553 31.3176 -41.9963 -12.2818 -0.0000 0.0000 -25.5523 13.0407 17.6125 4.0089 -7.1250 0.0000 -0.0000 -14.3043 47.5047 -0.9016 0.0000 -0.0000 0.0000 88.3329 39.9863 43.7178 -34.1662 44.2075 -14.2288 0.0000 -0.0000 -11.1342 -33.0228 29.1497 -17.5676 7.1250 -0.0000 -0.0000 -1.2702 3.6443 -1.3486
24.4093 13.0154 1.2922 183.2740 -45.8313 -170.6150 0.0000 0.0000 0.0000 -12.1914 15.7241 -77.3686 20.0469 19.9999 90.1372 1.1484 2.9994 -21.5276 0.0013 -0.2336 -0.6419 0.0000 0.0000 0.0000 -3.5749 -17.7924 -31.2644 -9.3279 -17.0142 57.2174 -2.8476 -2.7407 -32.9670 -8.6905 16.6044 -55.0135 5.7773 2.2111 29.2606 0.3440 2.0757 12.9222 -3.5023 0.3680 -1.2352 -9.8408 8.0285 -12.9861 -0.3235 10.0302 -23.4703 1.4548 4.8990 -5.6858 -0.0000 0.0000 0.0000 -85.6755 3.3126 30.3917 33.4012 -43.6362 -13.6982 -0.0000 0.0000 -25.7027 12.9811 17.7144 4.0122 -7.1250 0.0000 -0.0000 -14.3946 47.5968 -0.9408 -0.0000 0.0000 0.0000 88.5794 40.4655 44.8437 -37.7050 46.6499 -16.7507 0.0000 -0.0000 -11.7882 -32.6756 29.5708 -17.5638 7.1250 -0.0000 -0.0000 -0.9863 3.9991 -1.0529
24.1834 12.9589 1.2719 183.7010 -46.0443 -170.9280 0.0000 0.0000 0.0000 -10.9813 15.7524 -77.9423 19.9181 19.9998 89.7606 1.1420 2.7807 -21.3648 0.0056 -0.4837 -1.3292 0.0000 0.0000 0.0000 -4.0038 -18.3979 -29.7533 -8.9194 -16.7556 55.8110 -2.7585 -3.1469 -32.6275 -8.7317 16.6320 -55.1577 5.5480 2.4396 29.2498 0.2785 2.3175 12.8960 -3.5120 0.4841 -1.2504 -9.5998 8.0093 -12.7550 -0.4484 9.9940 -23.3176 1.3709 4.8884 -5.6459 -0.0000 0.0000 0.0000 -83.9448 4.4355 31.5267 35.6279 -45.2553 -15.2576 -0.0000 0.0000 -26.3499 13.4902 17.0798 4.0303 -7.1250 0.0000 -0.0000 -13.7100 47.0394 -0.7027 -0.0000 0.0000 0.0000 88.5066 40.5990 45.3811 -41.6048 48.9924 -19.6418 0.0000 -0.0000 -12.3073 -32.9142 30.8128 -18.3434 7.1250 -0.0000 -0.0000 -0.8603 5.4090 -0.9376
23.9453 12.9303 1.2490 184.3260 -46.3474 -171.4970 0.0000 0.0000 0.0000 -9.9009 16.0047 -78.2777 19.8047 19.9991 89.4291 1.1560 2.4916 -21.3484 0.0974 -2.0123 -5.5395 0.0000 0.0000 0.0000 -4.2116 -18.7431 -27.7867 -8.4225 -16.4214 54.0707 -2.6391 -3.7963 -32.2175 -8.7719 16.6587 -55.2981 5.3913 2.7018 29.2938 0.2235 2.6051 12.9308 -3.5647 0.6222 -1.2113 -9.9236 7.4854 -12.6126 0.2887 9.4639 -22.9357 1.6672 4.6424 -5.5643 -0.0000 0.0000 0.0000 -82.0496 5.1988 32.6273 37.7750 -46.6950 -16.8017 -0.0000 0.0000 -26.9163 13.0905 17.8346 4.0736 -7.1250 0.0000 -0.0000 -14.3353 47.7303 -0.9848 -0.0000 0.0000 0.0000 88.1419 40.7466 45.3703 -45.7203 51.1165 -22.7981 0.0000 -0.0000 -12.6483 -33.6379 31.8944 -19.3687 7.1250 -0.0000 -0.0000 -1.0243 6.7920 -1.1384
23.6897 12.9137 1.2204 185.0710 -46.7009 -172.2560 0.0000 0.0000 0.0000 -8.8291 16.2970 -78.3716 19.7123 19.9980 89.1588 1.0626 2.2135 -20.3880 0.1823 -2.7497 -7.5827 0.0000 0.0000 0.0000 -4.3198 -18.9916 -25.3979 -7.8041 -15.9733 51.8540 -2.4900 -4.3851 -31.6113 -8.7846 16.6671 -55.3421 5.1980 2.9523 29.3162 0.2100 2.8605 12.9996 -3.5407 0.7399 -1.1326 -9.8117 7.3545 -12.6045 0.7967 9.3988 -22.6609 1.8149 4.5924 -5.4845 -0.0000 -0.0000 0.0000 -80.0904 5.6912 33.5311 39.7576 -47.9256 -18.2591 -0.0000 0.0000 -26.9896 14.5423 16.5444 4.2246 -7.1250 0.0000 -0.0000 -12.5706 46.6456 -0.5185 -0.0000 -0.0000 0.0000 87.5668 40.9962 45.0908 -49.6482 52.8526 -25.8935 0.0000 -0.0000 -12.6590 -34.2141 32.6974 -20.1691 7.1250 -0.0000 -0.0000 -1.1554 7.8343 -1.3024
23.4213 12.8971 1.1819 185.6140 -47.1995 -172.8370 0.0000 0.0000 0.0000 -7.9792 16.4421 -78.3040 19.6728 19.9974 89.0433 0.9772 1.4788 -19.2643 0.2395 -3.1492 -8.6944 0.0000 0.0000 0.0000 -4.5792 -19.3679 -22.7190 -7.0905 -15.4076 49.2158 -2.3092 -5.0736 -30.8579 -8.7916 16.6717 -55.3665 4.7632 3.1736 29.2209 0.1726 3.0346 13.0193 -3.3795 0.8142 -1.0853 -9.5067 6.6658 -12.7858 1.0315 8.5340 -21.9130 1.8758 4.1506 -5.1548 0.0000 0.0000 0.0000 -78.1018 6.0162 34.1282 41.5707 -48.9734 -19.6161 -0.0000 0.0000 -26.5251 15.0662 15.6020 4.1409 -7.1250 0.0000 -0.0000 -11.8101 45.7688 -0.2273 0.0000 0.0000 0.0000 86.7466 41.0214 44.5265 -53.5717 54.3383 -29.0520 0.0000 -0.0000 -12.3977 -34.8096 33.5201 -21.0042 7.1250 -0.0000 -0.0000 -1.2814 8.9067 -1.4647
23.1413 12.8832 1.1341 185.8350 -47.9316 -173.1450 0.0000 0.0000 0.0000 -7.5747 16.3915 -78.0968 19.7040 19.9979 89.1344 0.8851 0.5830 -17.9994 0.3008 -3.5266 -9.7485 0.0000 0.0000 0.0000 -5.0597 -19.6688 -19.5699 -6.2947 -14.7080 46.1533 -2.0703 -6.2618 -29.9990 -8.8283 16.6959 -55.4944 4.0291 3.3812 29.0270 0.1493 3.1442 12.9663 -3.0127 0.8508 -1.1099 -9.9770 6.8880 -12.1581 1.9219 9.0467 -21.7258 2.1959 4.4346 -5.2766 0.0000 0.0000 0.0000 -76.1103 6.0938 34.5871 43.2265 -49.8694 -20.8737 -0.0000 0.0000 -25.9921 15.3396 14.9882 4.0579 -7.1250 0.0000 -0.0000 -11.3896 45.1847 -0.0526 0.0000 0.0000 0.0000 85.5887 40.6993 43.4444 -57.5401 55.6180 -32.3025 0.0000 -0.0000 -12.1376 -35.4935 34.4285 -21.9585 7.1250 -0.0000 -0.0000 -1.4212 10.1028 -1.6489
22.8557 12.8700 1.0803 186.0340 -48.8263 -173.4110 0.0000 0.0000 0.0000 -7.3362 16.2071 -77.7567 19.8041 19.9991 89.4273 0.7947 -0.4857 -16.6902 0.3751 -3.9337 -10.8903 0.0000 0.0000 0.0000 -5.4453 -19.5083 -15.8399 -5.4052 -13.8261 42.5453 -1.7952 -7.6715 -29.0531 -8.8590 16.7161 -55.6011 3.1476 3.5710 28.8034 0.1813 3.2210 12.8386 -2.4932 0.8681 -1.2238 -10.4116 6.2291 -12.4227 2.9664 8.4326 -20.6058 2.6254 4.1502 -4.8942 0.0000 -0.0000 0.0000 -74.1391 5.8492 34.8821 44.6492 -50.5955 -21.9674 -0.0000 0.0000 -25.6612 15.4731 15.0600 4.1140 -7.1250 0.0000 -0.0000 -11.2879 45.2732 -0.0771 0.0000 -0.0000 0.0000 84.2410 40.1172 41.9732 -61.3523 56.6597 -35.4686 0.0000 -0.0000 -12.0195 -36.3751 35.2471 -23.0299 7.1250 -0.0000 -0.0000 -1.6741 11.2770 -1.9699
22.5633 12.8473 1.0206 186.4930 -49.7520 -173.8130 0.0000 0.0000 0.0000 -7.1166 16.2818 -77.5442 20.0013 20.0000 90.0038 0.6738 -1.9172 -14.9714 0.3835 -3.9770 -11.0121 0.0000 0.0000 0.0000 -5.4590 -18.6589 -11.6690 -4.4844 -12.7785 38.5448 -1.5624 -8.7551 -28.1988 -8.8563 16.7144 -55.5920 2.3151 3.7349 28.4822 0.2209 3.2932 12.6632 -1.9897 0.8912 -1.3420 -10.8028 5.5969 -11.5934 4.3678 7.7363 -20.9541 3.1280 3.7772 -5.1349 -0.0000 0.0000 0.0000 -72.1384 5.3741 34.9902 45.9250 -51.2137 -22.9576 -0.0000 0.0000 -25.3217 15.8174 15.4198 4.3077 -7.1250 0.0000 -0.0000 -11.0727 45.6785 -0.1877 -0.0000 0.0000 0.0000 82.8055 39.2367 40.2262 -65.0975 57.5220 -38.6132 0.0000 -0.0000 -12.1097 -37.6880 35.9161 -24.3791 7.1250 -0.0000 -0.0000 -2.1769 12.4604 -2.5970
22.2444 12.8658 0.9563 186.9150 -50.5964 -174.1510 0.0000 0.0000 0.0000 -7.1210 16.2694 -76.7993 20.2222 19.9988 90.6496 0.6078 -3.3576 -13.9671 0.3620 -3.8649 -10.6968 0.0000 0.0000 0.0000 -5.2010 -17.2127 -7.1258 -3.5593 -11.5497 34.1571 -1.2452 -10.2871 -27.0905 -8.8279 16.6957 -55.4930 1.5168 3.9644 28.1063 0.1400 3.4640 12.4495 -1.6632 0.9742 -1.4609 -11.3451 5.1887 -11.0310 5.8710 7.4350 -20.7347 3.6919 3.6184 -5.1850 0.0000 0.0000 0.0000 -69.8672 4.6483 35.1307 47.2905 -51.8425 -24.0267 -0.0000 0.0000 -25.0115 16.5495 15.5699 4.5603 -7.1250 0.0000 -0.0000 -10.4430 45.9219 -0.2402 0.0000 0.0000 0.0000 81.3096 37.9798 37.8666 -68.8600 58.2421 -41.8002 0.0000 -0.0000 -12.5077 -38.9486 36.5779 -25.7191 7.1250 -0.0000 -0.0000 -2.6372 13.6362 -3.1875
21.9375 12.8798 0.8950 186.9110 -51.7953 -173.8160 0.0000 0.0000 0.0000 -7.6702 15.9438 -76.3883 20.5475 19.9928 91.6011 0.6338 -4.6242 -14.1830 0.4999 -4.5329 -12.5808 0.0000 0.0000 0.0000 -4.8178 -15.7164 -2.8084 -2.7293 -10.2433 29.7683 -0.7840 -12.6528 -25.6697 -8.8314 16.6980 -55.5051 0.6216 4.1230 27.6104 -0.1127 3.5656 12.0603 -1.4486 1.0440 -1.7175 -11.1551 4.5987 -9.4987 7.0546 6.6857 -21.4526 4.0377 3.1628 -5.5933 0.0000 -0.0000 0.0000 -67.3082 3.5878 35.1476 48.7300 -52.4703 -25.1635 -0.0000 0.0000 -24.9039 17.1883 15.8547 4.8305 -7.1250 0.0000 -0.0000 -9.9319 46.2934 -0.3201 0.0000 -0.0000 0.0000 79.9689 36.2997 34.9224 -72.5183 58.8132 -44.9207 0.0000 -0.0000 -13.0843 -39.6462 37.1054 -26.5604 7.1250 -0.0000 -0.0000 -2.8360 14.4638 -3.4581
